<svg xmlns="http://www.w3.org/2000/svg" viewBox="0 0 1188.46 1163.81">
  <defs>
    <style>
      .cls-1, .cls-5 {
        fill: #1a50a1;
      }

      .cls-1, .cls-7 {
        stroke: #fff;
      }

      .cls-1, .cls-4, .cls-7 {
        stroke-miterlimit: 10;
      }

      .cls-1 {
        stroke-width: 9.18px;
      }

      .cls-2 {
        font-size: 78.05px;
        font-family: MyriadPro-Regular, Myriad Pro;
      }

      .cls-2, .cls-3, .cls-4 {
        fill: #fff;
      }

      .cls-4 {
        stroke: #1a50a1;
        stroke-width: 5.51px;
      }

      .cls-6 {
        fill: #175299;
      }

      .cls-7 {
        fill: none;
        stroke-linecap: round;
        stroke-width: 10.7px;
      }
    </style>
  </defs>
  <title>nuos_PNG</title>
  <g id="Слой_9" data-name="Слой 9">
    <g>
      <circle class="cls-1" cx="580.65" cy="607.72" r="490"/>
      <text class="cls-2" transform="translate(256.79 817.34) rotate(-119.3)">A</text>
      <text class="cls-2" transform="matrix(-0.39, -0.92, 0.92, -0.39, 234.54, 777.74)">d</text>
      <text class="cls-2" transform="translate(217.33 739.03) rotate(-105.04)">m</text>
      <text class="cls-2" transform="matrix(-0.16, -0.99, 0.99, -0.16, 201.91, 677.2)">i</text>
      <text class="cls-2" transform="translate(199.02 659.87) rotate(-95.92)">r</text>
      <text class="cls-2" transform="translate(196.24 635.89) rotate(-91.43)">a</text>
      <text class="cls-2" transform="translate(195.63 599.19) rotate(-87.39)">l</text>
      <text class="cls-2" transform="translate(196.45 581.37) rotate(-84.86)"> </text>
      <text class="cls-2" transform="translate(196.61 566) rotate(-79.11)">M</text>
      <text class="cls-2" transform="translate(208.97 505.65) rotate(-71.77)">a</text>
      <text class="cls-2" transform="matrix(0.4, -0.92, 0.92, 0.4, 220.34, 471.04)">k</text>
      <text class="cls-2" transform="translate(235.04 437.32) rotate(-60.97)">a</text>
      <text class="cls-2" transform="translate(252.97 405.41) rotate(-56.47)">r</text>
      <text class="cls-2" transform="matrix(0.62, -0.78, 0.78, 0.62, 265.7, 385.41)">o</text>
      <text class="cls-2" transform="translate(291.17 353.27) rotate(-45.91)">v</text>
      <text class="cls-2" transform="matrix(0.74, -0.67, 0.67, 0.74, 316.92, 327.17)"> </text>
      <text class="cls-2" transform="translate(327.89 316.23) rotate(-37.07)">N</text>
      <text class="cls-2" transform="translate(367.91 286.38) rotate(-30.65)">a</text>
      <text class="cls-2" transform="translate(399.21 268.04) rotate(-26.13)">t</text>
      <text class="cls-2" transform="translate(421.82 257.05) rotate(-22.97)">i</text>
      <text class="cls-2" transform="matrix(0.95, -0.32, 0.32, 0.95, 437.55, 249.83)">o</text>
      <text class="cls-2" transform="translate(476.84 236.52) rotate(-12.43)">n</text>
      <text class="cls-2" transform="translate(517.9 227.55) rotate(-6.62)">a</text>
      <text class="cls-2" transform="matrix(1, -0.05, 0.05, 1, 554.4, 223.62)">l</text>
      <text class="cls-2" transform="translate(572.23 222.82) rotate(-0.07)"> </text>
      <text class="cls-2" transform="translate(587.72 222.04) rotate(4.78)">U</text>
      <text class="cls-2" transform="translate(636.55 226.24) rotate(11.58)">n</text>
      <text class="cls-2" transform="translate(677.89 235.17) rotate(16.04)">i</text>
      <text class="cls-2" transform="translate(694.67 239.62) rotate(20.07)">v</text>
      <text class="cls-2" transform="translate(728.12 251.7) rotate(25.44)">e</text>
      <text class="cls-2" transform="translate(762.4 268.27) rotate(30.02)">r</text>
      <text class="cls-2" transform="matrix(0.83, 0.56, -0.56, 0.83, 783.79, 280.47)">s</text>
      <text class="cls-2" transform="matrix(0.79, 0.61, -0.61, 0.79, 808.65, 297.48)">i</text>
      <text class="cls-2" transform="translate(822.62 308.08) rotate(40.79)">t</text>
      <text class="cls-2" transform="translate(842.09 324.57) rotate(45.43)">y</text>
      <text class="cls-2" transform="translate(867.06 350.36) rotate(49.3)"> </text>
      <text class="cls-2" transform="translate(877.63 361.84) rotate(53.59)">o</text>
      <text class="cls-2" transform="matrix(0.53, 0.85, -0.85, 0.53, 902.12, 395.66)">f</text>
      <text class="cls-2" transform="translate(913.7 414.55) rotate(61.16)"> </text>
      <text class="cls-2" transform="translate(921.62 428.09) rotate(65.11)">S</text>
      <text class="cls-2" transform="matrix(0.33, 0.95, -0.95, 0.33, 937.44, 461.75)">h</text>
      <text class="cls-2" transform="translate(950.82 501.9) rotate(75.38)">i</text>
      <text class="cls-2" transform="translate(955.72 518.46) rotate(79.86)">p</text>
      <text class="cls-2" transform="matrix(0.07, 1, -1, 0.07, 963.36, 560.78)">b</text>
      <text class="cls-2" transform="translate(966.22 603.71) rotate(92.55)">u</text>
      <text class="cls-2" transform="translate(963.92 645.65) rotate(96.99)">i</text>
      <text class="cls-2" transform="translate(961.78 663.2) rotate(99.65)">l</text>
      <text class="cls-2" transform="translate(959.4 680.44) rotate(104.17)">d</text>
      <text class="cls-2" transform="matrix(-0.32, 0.95, -0.95, -0.32, 948.42, 722.01)">i</text>
      <text class="cls-2" transform="translate(943.37 738.57) rotate(113.11)">n</text>
      <text class="cls-2" transform="translate(926.98 777.19) rotate(119.27)">g</text>
      <g>
        <polygon class="cls-3" points="598.82 302.1 562.47 302.1 536.76 327.81 536.76 364.16 562.47 389.87 598.82 389.87 624.53 364.16 624.53 327.81 598.82 302.1"/>
        <polygon class="cls-4" points="592.15 318.22 569.15 318.22 552.89 334.48 552.89 357.48 569.15 373.74 592.15 373.74 608.41 357.48 608.41 334.48 592.15 318.22"/>
        <circle class="cls-5" cx="580.65" cy="345.98" r="16.11"/>
      </g>
      <rect class="cls-3" x="423.52" y="398.13" width="314.26" height="31.91"/>
      <polygon class="cls-3" points="624.38 438.3 536.92 438.3 423.52 438.3 423.52 458.65 557.12 479.31 557.12 504.34 604.1 504.34 604.1 479.27 604.18 479.31 737.78 458.65 737.78 438.3 624.38 438.3"/>
      <g>
        <g>
          <polygon class="cls-3" points="628.51 512.6 613.82 512.6 613.82 567.69 628.51 567.69 628.51 541.58 629.31 540.15 628.51 538.72 628.51 512.6"/>
          <polygon class="cls-3" points="659.5 512.6 644.81 512.6 636.66 527.09 629.31 540.15 636.66 553.21 644.81 567.69 659.5 567.69 644 540.15 659.5 512.6"/>
        </g>
        <polygon class="cls-3" points="595.53 512.6 585.16 535.36 574.79 512.6 560.1 512.6 577.82 551.48 570.43 567.69 585.12 567.69 585.16 567.61 592.51 551.48 610.22 512.6 595.53 512.6"/>
        <polygon class="cls-3" points="536.92 512.6 536.92 532.8 516.49 532.8 516.49 512.6 501.8 512.6 501.8 567.69 516.49 567.69 516.49 547.49 536.92 547.49 536.92 567.69 551.61 567.69 551.61 512.6 536.92 512.6"/>
      </g>
      <path class="cls-3" d="M623.11,519.31c-7.8,15.48-.92,15.28-9.18,52.46s-34.43,35.81-27.09,39.94,23.41,43.16-10.1,33.51c-51-13.31-44.07-159.31-44.07-159.31L512,485.85l-20.66.08s6.89,146-44.07,159.31c-33.51,9.64-17.45-29.38-10.1-33.51s-18.82-2.75-27.09-39.94-1.38-37-9.18-52.46-15.61-35.23-48.21-49.46V691.14s.46,27.09,21.58,27.09h97a40.75,40.75,0,0,0,81.49,0h97c21.12,0,21.58-27.09,21.58-27.09V469.85C638.72,484.09,630.91,503.83,623.11,519.31Z" transform="translate(68.65 95.72)"/>
      <g>
        <polygon class="cls-6" points="513.01 755.23 525.3 755.23 525.3 798.38 517.14 798.38 517.14 762.95 508.26 762.95 513.01 755.23"/>
        <path class="cls-6" d="M495.09,661.39a14.29,14.29,0,0,0-24.55,10,14.18,14.18,0,0,0,4.08,10.33,13.34,13.34,0,0,0,9.9,4.16l-8,15.56,7.39,3.67,11.74-23a43.59,43.59,0,0,0,2.93-6.56,14.71,14.71,0,0,0,.64-4.24A13.87,13.87,0,0,0,495.09,661.39Zm-6,14.47a5.34,5.34,0,0,1-4.07,1.76,5.63,5.63,0,0,1-4.24-1.76,6.56,6.56,0,0,1,0-8.85,5.61,5.61,0,0,1,4.16-1.78,5.41,5.41,0,0,1,4,1.8,6.63,6.63,0,0,1,.08,8.83Z" transform="translate(68.65 95.72)"/>
        <path class="cls-6" d="M521.53,673.87h-8.11q.33-7.07,4.44-11.13a15.69,15.69,0,0,1,17.59-2.38,12.58,12.58,0,0,1,4.87,4.84,12.73,12.73,0,0,1,1.83,6.43,19,19,0,0,1-2.22,8.38q-2.21,4.49-8.1,10.61l-4.9,5.17h15.57v7.69H512.24v-4l13.52-13.78a39.51,39.51,0,0,0,6.52-8,11.74,11.74,0,0,0,1.62-5.45,5.6,5.6,0,0,0-1.68-4.17,5.9,5.9,0,0,0-4.32-1.65,5.73,5.73,0,0,0-4.46,2A8.26,8.26,0,0,0,521.53,673.87Z" transform="translate(68.65 95.72)"/>
        <path class="cls-6" d="M582.47,667.42a15.15,15.15,0,0,0-5.44-7.3,14.6,14.6,0,0,0-8.39-2.39,13.45,13.45,0,0,0-11.7,6q-3.78,5.5-3.78,17.74,0,8.76,1.93,13.51a15.17,15.17,0,0,0,5.35,7.07,14.63,14.63,0,0,0,8.43,2.33,14.12,14.12,0,0,0,8.31-2.31,15.48,15.48,0,0,0,5.24-7.24q1.95-4.93,1.95-13.78T582.47,667.42Zm-8.75,26.1a5.49,5.49,0,0,1-4.89,3.05,6,6,0,0,1-5.2-3.22q-2-3.22-2-11.65a41.58,41.58,0,0,1,.87-9.82,8.92,8.92,0,0,1,2.53-4.73,5.79,5.79,0,0,1,3.8-1.38q3.14,0,5.11,3.33t2,12.09Q575.93,689.84,573.73,693.52Z" transform="translate(68.65 95.72)"/>
      </g>
      <path class="cls-7" d="M512,811.13s7.88-12.48,35.23-18.73,81.15-15.75,93.34-19.32,41.62-7.73,48.45-45.78,60.64-324.6,60.64-324.6L607.27,364.95H416.73L274.34,402.7S328.15,689.25,335,727.3s36.26,42.21,48.45,45.78,66,13.08,93.34,19.32S512,811.13,512,811.13" transform="translate(68.65 95.72)"/>
    </g>
  </g>
</svg>
